<mxfile host="app.diagrams.net" modified="2022-05-26T08:46:03.696Z" agent="5.0 (Macintosh; Intel Mac OS X 10_15_7) AppleWebKit/537.36 (KHTML, like Gecko) Chrome/98.0.4758.109 Safari/537.36" etag="xTWFwxzpCScKoBouJMhd" version="18.0.8" type="github">
  <diagram id="Ly6T59V4EVn3zM-SV5A3" name="Page-1">
    <mxGraphModel dx="2125" dy="699" grid="1" gridSize="10" guides="1" tooltips="1" connect="1" arrows="1" fold="1" page="1" pageScale="1" pageWidth="827" pageHeight="1169" math="0" shadow="0">
      <root>
        <mxCell id="0" />
        <mxCell id="1" parent="0" />
        <mxCell id="x6J5Ixqfy5eMrwD8hTKc-1" value="Synapse adapter (BEL)" style="rounded=1;whiteSpace=wrap;html=1;" vertex="1" parent="1">
          <mxGeometry x="110" y="160" width="120" height="60" as="geometry" />
        </mxCell>
        <mxCell id="x6J5Ixqfy5eMrwD8hTKc-2" value="Service (SMS Router) OpenShift" style="rounded=1;whiteSpace=wrap;html=1;" vertex="1" parent="1">
          <mxGeometry x="370" y="450" width="120" height="60" as="geometry" />
        </mxCell>
        <mxCell id="x6J5Ixqfy5eMrwD8hTKc-3" value="1. Смотрим номер&amp;nbsp;" style="text;html=1;strokeColor=none;fillColor=none;align=center;verticalAlign=middle;whiteSpace=wrap;rounded=0;" vertex="1" parent="1">
          <mxGeometry x="250" y="400" width="120" height="60" as="geometry" />
        </mxCell>
        <mxCell id="x6J5Ixqfy5eMrwD8hTKc-4" value="" style="endArrow=classic;html=1;rounded=0;" edge="1" parent="1">
          <mxGeometry width="50" height="50" relative="1" as="geometry">
            <mxPoint x="440" y="600" as="sourcePoint" />
            <mxPoint x="440" y="510" as="targetPoint" />
          </mxGeometry>
        </mxCell>
        <mxCell id="x6J5Ixqfy5eMrwD8hTKc-5" value="1. Телефон, тип сообщения, параметры&lt;br&gt;2. либо массив" style="text;html=1;strokeColor=none;fillColor=none;align=center;verticalAlign=middle;whiteSpace=wrap;rounded=0;" vertex="1" parent="1">
          <mxGeometry x="430" y="560" width="270" height="30" as="geometry" />
        </mxCell>
        <mxCell id="x6J5Ixqfy5eMrwD8hTKc-6" value="IDP Service" style="rounded=1;whiteSpace=wrap;html=1;fillColor=#f8cecc;strokeColor=#b85450;" vertex="1" parent="1">
          <mxGeometry x="380" y="600" width="120" height="60" as="geometry" />
        </mxCell>
        <mxCell id="x6J5Ixqfy5eMrwD8hTKc-7" value="OKKO" style="rounded=1;whiteSpace=wrap;html=1;" vertex="1" parent="1">
          <mxGeometry x="380" y="760" width="120" height="60" as="geometry" />
        </mxCell>
        <mxCell id="x6J5Ixqfy5eMrwD8hTKc-8" value="" style="endArrow=classic;html=1;rounded=0;exitX=0.5;exitY=0;exitDx=0;exitDy=0;entryX=0.5;entryY=1;entryDx=0;entryDy=0;" edge="1" parent="1" source="x6J5Ixqfy5eMrwD8hTKc-7" target="x6J5Ixqfy5eMrwD8hTKc-6">
          <mxGeometry width="50" height="50" relative="1" as="geometry">
            <mxPoint x="390" y="620" as="sourcePoint" />
            <mxPoint x="440" y="670" as="targetPoint" />
          </mxGeometry>
        </mxCell>
        <mxCell id="x6J5Ixqfy5eMrwD8hTKc-9" value="BEL&amp;nbsp;" style="shape=umlActor;verticalLabelPosition=bottom;verticalAlign=top;html=1;outlineConnect=0;" vertex="1" parent="1">
          <mxGeometry x="425" y="910" width="30" height="60" as="geometry" />
        </mxCell>
        <mxCell id="x6J5Ixqfy5eMrwD8hTKc-10" value="" style="endArrow=classic;html=1;rounded=0;exitX=0.5;exitY=0;exitDx=0;exitDy=0;exitPerimeter=0;" edge="1" parent="1" source="x6J5Ixqfy5eMrwD8hTKc-9">
          <mxGeometry width="50" height="50" relative="1" as="geometry">
            <mxPoint x="390" y="780" as="sourcePoint" />
            <mxPoint x="440" y="820" as="targetPoint" />
          </mxGeometry>
        </mxCell>
        <mxCell id="x6J5Ixqfy5eMrwD8hTKc-11" value="Могут отправлять и сейчас клиенту, но это будет дороже стоит" style="text;html=1;strokeColor=none;fillColor=none;align=center;verticalAlign=middle;whiteSpace=wrap;rounded=0;" vertex="1" parent="1">
          <mxGeometry x="500" y="910" width="170" height="30" as="geometry" />
        </mxCell>
        <mxCell id="x6J5Ixqfy5eMrwD8hTKc-12" value="Вводит BY номер и хочет получить код" style="text;html=1;strokeColor=none;fillColor=none;align=center;verticalAlign=middle;whiteSpace=wrap;rounded=0;" vertex="1" parent="1">
          <mxGeometry x="370" y="860" width="60" height="30" as="geometry" />
        </mxCell>
        <mxCell id="x6J5Ixqfy5eMrwD8hTKc-14" value="?" style="text;html=1;strokeColor=none;fillColor=none;align=center;verticalAlign=middle;whiteSpace=wrap;rounded=0;" vertex="1" parent="1">
          <mxGeometry x="310" y="615" width="60" height="30" as="geometry" />
        </mxCell>
        <mxCell id="x6J5Ixqfy5eMrwD8hTKc-15" value="ConfigMap" style="rounded=1;whiteSpace=wrap;html=1;" vertex="1" parent="1">
          <mxGeometry x="560" y="410" width="120" height="60" as="geometry" />
        </mxCell>
        <mxCell id="x6J5Ixqfy5eMrwD8hTKc-16" value="" style="endArrow=classic;html=1;rounded=0;entryX=0;entryY=0.5;entryDx=0;entryDy=0;exitX=1;exitY=0.5;exitDx=0;exitDy=0;startArrow=classic;startFill=1;" edge="1" parent="1" source="x6J5Ixqfy5eMrwD8hTKc-2" target="x6J5Ixqfy5eMrwD8hTKc-15">
          <mxGeometry width="50" height="50" relative="1" as="geometry">
            <mxPoint x="390" y="490" as="sourcePoint" />
            <mxPoint x="440" y="440" as="targetPoint" />
          </mxGeometry>
        </mxCell>
        <mxCell id="x6J5Ixqfy5eMrwD8hTKc-17" value="Application.yml" style="text;html=1;strokeColor=none;fillColor=none;align=center;verticalAlign=middle;whiteSpace=wrap;rounded=0;" vertex="1" parent="1">
          <mxGeometry x="580" y="370" width="60" height="30" as="geometry" />
        </mxCell>
        <mxCell id="x6J5Ixqfy5eMrwD8hTKc-18" value="1. Уточнить как работает шедулер в ОС" style="text;html=1;strokeColor=none;fillColor=none;align=center;verticalAlign=middle;whiteSpace=wrap;rounded=0;" vertex="1" parent="1">
          <mxGeometry x="560" y="480" width="180" height="30" as="geometry" />
        </mxCell>
        <mxCell id="x6J5Ixqfy5eMrwD8hTKc-19" value="" style="endArrow=none;dashed=1;html=1;dashPattern=1 3;strokeWidth=2;rounded=0;" edge="1" parent="1">
          <mxGeometry width="50" height="50" relative="1" as="geometry">
            <mxPoint x="30" y="320" as="sourcePoint" />
            <mxPoint x="700" y="320" as="targetPoint" />
          </mxGeometry>
        </mxCell>
        <mxCell id="x6J5Ixqfy5eMrwD8hTKc-20" value="POST: sendOneNotif&lt;br&gt;" style="text;html=1;strokeColor=none;fillColor=none;align=center;verticalAlign=middle;whiteSpace=wrap;rounded=0;" vertex="1" parent="1">
          <mxGeometry x="30" y="420" width="170" height="30" as="geometry" />
        </mxCell>
        <mxCell id="x6J5Ixqfy5eMrwD8hTKc-21" value="POST: sendSeveralNotif" style="text;html=1;strokeColor=none;fillColor=none;align=center;verticalAlign=middle;whiteSpace=wrap;rounded=0;" vertex="1" parent="1">
          <mxGeometry x="150" y="480" width="170" height="30" as="geometry" />
        </mxCell>
        <mxCell id="x6J5Ixqfy5eMrwD8hTKc-23" value="" style="edgeStyle=orthogonalEdgeStyle;rounded=0;orthogonalLoop=1;jettySize=auto;html=1;startArrow=classic;startFill=1;" edge="1" parent="1" source="x6J5Ixqfy5eMrwD8hTKc-22" target="x6J5Ixqfy5eMrwD8hTKc-20">
          <mxGeometry relative="1" as="geometry" />
        </mxCell>
        <mxCell id="x6J5Ixqfy5eMrwD8hTKc-22" value="Data:&lt;br&gt;&lt;span style=&quot;color: rgb(33, 37, 41); font-family: SBSansTextRegular, sans-serif; font-size: 14px; text-align: left; background-color: rgb(235, 236, 237);&quot;&gt;{&lt;br/&gt;		&quot;phoneNumber&quot;: &quot;375775552&quot;,&lt;br/&gt;		&quot;msgType&quot;: &quot;msgType&quot;,&lt;br/&gt;		&quot;businessData&quot;: {&lt;br/&gt;			&quot;code1&quot;: &quot;code1&quot;&lt;br/&gt;		}&lt;br/&gt;}&lt;/span&gt;" style="text;html=1;strokeColor=none;fillColor=none;align=center;verticalAlign=middle;whiteSpace=wrap;rounded=0;" vertex="1" parent="1">
          <mxGeometry x="-160" y="520" width="360" height="30" as="geometry" />
        </mxCell>
        <mxCell id="x6J5Ixqfy5eMrwD8hTKc-24" value="" style="endArrow=classic;html=1;rounded=0;entryX=0.5;entryY=1;entryDx=0;entryDy=0;exitX=0.5;exitY=0;exitDx=0;exitDy=0;startArrow=classic;startFill=1;" edge="1" parent="1" source="x6J5Ixqfy5eMrwD8hTKc-2" target="x6J5Ixqfy5eMrwD8hTKc-1">
          <mxGeometry width="50" height="50" relative="1" as="geometry">
            <mxPoint x="390" y="460" as="sourcePoint" />
            <mxPoint x="440" y="410" as="targetPoint" />
            <Array as="points">
              <mxPoint x="430" y="290" />
            </Array>
          </mxGeometry>
        </mxCell>
        <mxCell id="x6J5Ixqfy5eMrwD8hTKc-25" value="&lt;span style=&quot;color: rgb(33, 37, 41); font-family: SBSansTextRegular, sans-serif; font-size: 14px; text-align: left; background-color: rgb(235, 236, 237);&quot;&gt;{&lt;br&gt;	&quot;rqUid&quot;: &quot;rqId_1&quot;,&lt;br&gt;	&quot;msgDate&quot;: &quot;2022-04-11T22:03:50.820+03:00&quot;,&lt;br&gt;	&quot;sms&quot;: [&lt;br&gt;		{&lt;br&gt;			&quot;messageId&quot;: &quot;messageId_1&quot;,&lt;br&gt;			&quot;phones&quot;: [&quot;1231231122&quot;],&lt;br&gt;			&quot;text&quot;: &quot;message text&quot;,&lt;br&gt;			&quot;title&quot;: &quot;message title&quot;&lt;br&gt;		}&lt;br&gt;]&lt;br&gt;}&lt;/span&gt;" style="text;html=1;strokeColor=none;fillColor=none;align=center;verticalAlign=middle;whiteSpace=wrap;rounded=0;" vertex="1" parent="1">
          <mxGeometry x="490" y="130" width="60" height="30" as="geometry" />
        </mxCell>
        <mxCell id="x6J5Ixqfy5eMrwD8hTKc-27" value="" style="endArrow=classic;html=1;rounded=0;" edge="1" parent="1">
          <mxGeometry width="50" height="50" relative="1" as="geometry">
            <mxPoint x="390" y="280" as="sourcePoint" />
            <mxPoint x="450" y="210" as="targetPoint" />
          </mxGeometry>
        </mxCell>
        <mxCell id="x6J5Ixqfy5eMrwD8hTKc-28" value="SberNotify" style="rounded=1;whiteSpace=wrap;html=1;" vertex="1" parent="1">
          <mxGeometry x="660" y="250" width="120" height="60" as="geometry" />
        </mxCell>
        <mxCell id="x6J5Ixqfy5eMrwD8hTKc-29" value="" style="endArrow=classic;html=1;rounded=0;entryX=0;entryY=0.5;entryDx=0;entryDy=0;exitX=0.5;exitY=0;exitDx=0;exitDy=0;" edge="1" parent="1" source="x6J5Ixqfy5eMrwD8hTKc-2" target="x6J5Ixqfy5eMrwD8hTKc-28">
          <mxGeometry width="50" height="50" relative="1" as="geometry">
            <mxPoint x="390" y="360" as="sourcePoint" />
            <mxPoint x="440" y="310" as="targetPoint" />
            <Array as="points">
              <mxPoint x="570" y="280" />
            </Array>
          </mxGeometry>
        </mxCell>
        <mxCell id="x6J5Ixqfy5eMrwD8hTKc-30" value="Для SberNotify &lt;br&gt;шаблоны &lt;br&gt;не используются &lt;br&gt;которые в app_property.yml" style="edgeLabel;html=1;align=center;verticalAlign=middle;resizable=0;points=[];" vertex="1" connectable="0" parent="x6J5Ixqfy5eMrwD8hTKc-29">
          <mxGeometry x="0.2976" y="-1" relative="1" as="geometry">
            <mxPoint x="1" y="35" as="offset" />
          </mxGeometry>
        </mxCell>
        <mxCell id="x6J5Ixqfy5eMrwD8hTKc-31" value="" style="shape=cylinder3;whiteSpace=wrap;html=1;boundedLbl=1;backgroundOutline=1;size=15;rotation=90;" vertex="1" parent="1">
          <mxGeometry x="10" y="60" width="60" height="80" as="geometry" />
        </mxCell>
        <mxCell id="x6J5Ixqfy5eMrwD8hTKc-32" value="MQ" style="text;html=1;strokeColor=none;fillColor=none;align=center;verticalAlign=middle;whiteSpace=wrap;rounded=0;" vertex="1" parent="1">
          <mxGeometry y="40" width="60" height="30" as="geometry" />
        </mxCell>
        <mxCell id="x6J5Ixqfy5eMrwD8hTKc-33" value="" style="endArrow=classic;html=1;rounded=0;entryX=0.625;entryY=-0.025;entryDx=0;entryDy=0;entryPerimeter=0;exitX=0.5;exitY=0;exitDx=0;exitDy=0;" edge="1" parent="1" source="x6J5Ixqfy5eMrwD8hTKc-1" target="x6J5Ixqfy5eMrwD8hTKc-31">
          <mxGeometry width="50" height="50" relative="1" as="geometry">
            <mxPoint x="390" y="320" as="sourcePoint" />
            <mxPoint x="440" y="270" as="targetPoint" />
          </mxGeometry>
        </mxCell>
        <mxCell id="x6J5Ixqfy5eMrwD8hTKc-34" value="Переделывает в XML для MQ" style="edgeLabel;html=1;align=center;verticalAlign=middle;resizable=0;points=[];" vertex="1" connectable="0" parent="x6J5Ixqfy5eMrwD8hTKc-33">
          <mxGeometry x="-0.0143" y="-1" relative="1" as="geometry">
            <mxPoint x="23" y="7" as="offset" />
          </mxGeometry>
        </mxCell>
        <mxCell id="x6J5Ixqfy5eMrwD8hTKc-35" value="ByNotify" style="triangle;whiteSpace=wrap;html=1;" vertex="1" parent="1">
          <mxGeometry x="-340" y="220" width="60" height="80" as="geometry" />
        </mxCell>
        <mxCell id="x6J5Ixqfy5eMrwD8hTKc-36" value="" style="endArrow=classic;html=1;rounded=0;exitX=0.5;exitY=0;exitDx=0;exitDy=0;entryX=0.5;entryY=1;entryDx=0;entryDy=0;entryPerimeter=0;startArrow=classic;startFill=1;" edge="1" parent="1" source="x6J5Ixqfy5eMrwD8hTKc-35" target="x6J5Ixqfy5eMrwD8hTKc-31">
          <mxGeometry width="50" height="50" relative="1" as="geometry">
            <mxPoint x="90" y="240" as="sourcePoint" />
            <mxPoint x="140" y="190" as="targetPoint" />
          </mxGeometry>
        </mxCell>
        <mxCell id="x6J5Ixqfy5eMrwD8hTKc-37" value="" style="endArrow=classic;html=1;rounded=0;" edge="1" parent="1" source="x6J5Ixqfy5eMrwD8hTKc-35">
          <mxGeometry width="50" height="50" relative="1" as="geometry">
            <mxPoint x="-180" y="620" as="sourcePoint" />
            <mxPoint x="420" y="960" as="targetPoint" />
            <Array as="points">
              <mxPoint x="-310" y="960" />
            </Array>
          </mxGeometry>
        </mxCell>
      </root>
    </mxGraphModel>
  </diagram>
</mxfile>
